<?xml version="1.0" standalone="yes"?>
<svg xmlns="http://www.w3.org/2000/svg" width="1374" height="286">
<path style="fill:#fefeff; stroke:none;" d="M0 0L0 284L1374 284L1374 0L188 0L188 1C262.135 2.53046 320.88 82.4888 313.829 153C306.762 223.684 245.006 282.921 173 282.921C102.983 282.921 41.2371 226.888 32.2894 158C22.8839 85.5879 81.0768 2.58801 158 1C145.83 -4.10654 124.253 0 111 0L0 0z"/>
<path style="fill:#04dae6; stroke:none;" d="M158 0.425171C135.364 3.50635 114.277 10.1416 95 22.6952C79.8101 32.5875 67.1129 45.1956 56.7207 60C18.0943 115.026 24.4472 194.601 73.0895 241.83C105.284 273.089 149.934 286.654 194 280.718C212.476 278.229 230.017 271.402 246 261.989C260.421 253.496 273.296 242.189 283.576 229C345.006 150.187 306.214 31.7262 210 4.57947C193.707 -0.0177002 174.845 -1.8678 158 0.425171z"/>
<path style="fill:#54696a; stroke:none;" d="M155 48L156 49L155 48z"/>
<path style="fill:#020202; stroke:none;" d="M156 48L168.719 72L197 121C203.726 113.979 218.567 96.7289 219.883 87C220.402 83.1627 217.043 79.1638 215.306 76C210.738 67.6832 205.979 54.2243 196.996 49.9198C186.008 44.6543 167.988 48 156 48z"/>
<path style="fill:#54696a; stroke:none;" d="M193.667 48.3333L194.333 48.6667L193.667 48.3333M196 49L197 50L196 49M156 50L157 51L156 50M198 50L199 51L198 50M157 52L158 53L157 52M203 55L204 56L203 55M160 57L161 58L160 57M205 58L206 59L205 58M161 59L162 60L161 59M206 60L207 61L206 60M163 62L164 63L163 62M207 62L208 63L207 62M164 64L165 65L164 64M209 65L210 66L209 65M165 66L166 67L165 66M210 67L211 68L210 67M167 69L168 70L167 69M211 69L212 70L211 69M168 71L169 72L168 71M213 72L214 73L213 72M214 74L215 75L214 74M139 75L138 77L139 75z"/>
<path style="fill:#020202; stroke:none;" d="M140 75L121.573 106L98 148L126 149L181 148C179.049 137.739 171.24 127.903 166.011 119C157.992 105.347 151.369 86.0239 140 75z"/>
<path style="fill:#54696a; stroke:none;" d="M171 76L172 77L171 76M215 76L216 77L215 76M142 77L143 78L142 77M172 78L173 79L172 78M216 78L217 79L216 78M136 79L137 80L136 79M143 79L144 80L143 79M217 79L218 80L217 79M135 81L136 82L135 81M218 81L219 82L218 81M175 83L176 84L175 83M219 83L220 84L219 83M146 84L147 85L146 84M176 85L177 86L176 85M220 85L221 86L220 85M132 86L133 87L132 86M147 86L148 87L147 86M220 87L221 88L220 87M131 88L132 89L131 88M130 90L131 91L130 90M179 90L180 91L179 90M218 90L219 91L218 90M217 91L218 92L217 91M180 92L181 93L180 92M305 92L306 93L305 92M151 93L152 94L151 93M216 93L217 94L216 93M127 95L128 96L127 95M152 95L153 96L152 95M182 95L183 96L182 95z"/>
<path style="fill:#020202; stroke:none;" d="M988 95L988 228L996 228L996 95L988 95z"/>
<path style="fill:#54696a; stroke:none;" d="M996 95L996 228L997 228L997 135C997 123.58 1000.41 105.504 996 95z"/>
<path style="fill:#020202; stroke:none;" d="M1180 95L1180 198L1194 198L1194 95L1180 95z"/>
<path style="fill:#54696a; stroke:none;" d="M214 96L215 97L214 96M126 97L127 98L126 97M183 97L184 98L183 97M213 97L214 98L213 97M184 99L185 100L184 99M792 99L792 100L796 100L792 99z"/>
<path style="fill:#0408ff; stroke:none;" d="M796 99.598C783.925 100.164 776.625 109.27 773.004 120C766.75 138.529 766.602 163.396 772.671 182C776.415 193.475 784.598 204.428 798 203.621C810.461 202.871 818.148 193.27 821.561 182C827.219 163.313 827.373 138.597 821.251 120C817.443 108.434 808.983 98.9894 796 99.598z"/>
<path style="fill:#54696a; stroke:none;" d="M798 99L798 100L802 100L798 99M987 99L987 228L988 228L988 138C988 126.842 991.308 109.266 987 99M155 100L156 101L155 100M211 100L212 101L211 100z"/>
<path style="fill:#0408ff; stroke:none;" d="M636 100L636 126L654 126L654 201L670 201L670 126L687 126L687 100L636 100z"/>
<path style="fill:#54696a; stroke:none;" d="M687 100L687 126L688 126L687 100M689.333 100.667L689.667 101.333L689.333 100.667z"/>
<path style="fill:#0408ff; stroke:none;" d="M690 100L702 202L720 202L727 140L728 140L735 202L753 202L765 100L749 100L743 158L742 158L736 100L720 100L714 158L713 158L707 100L690 100z"/>
<path style="fill:#54696a; stroke:none;" d="M719 100L719 104L720 104L719 100M765 100L766 101L765 100M789 100L790 101L789 100M804 100L805 101L804 100M364.667 101.333L365.333 101.667L364.667 101.333z"/>
<path style="fill:#0408ff; stroke:none;" d="M346 202L362 202L364 188L381.683 189.028L386.013 200.397L402 202C401.817 179.9 393.785 156.776 390.081 135C388.572 126.124 388.342 110.951 383.567 103.318C381.257 99.6241 370.827 100.249 367.147 101.434C361.451 103.268 360.826 119.787 359.804 125C354.959 149.703 346.519 176.837 346 202z"/>
<path style="fill:#54696a; stroke:none;" d="M383 101L384 102L383 101M401 101L402 102L401 101z"/>
<path style="fill:#0408ff; stroke:none;" d="M457 101L441.589 102.028L437.576 119L430 168C423.298 154.152 423.588 134.166 421.08 119C420.4 114.884 420.764 103.729 416.566 101.603C413.781 100.193 403.052 99.754 401.774 103.318C399.5 109.658 404.95 123.353 406.081 130C408.863 146.357 411.965 162.727 415.2 179C416.4 185.04 416.31 194.262 419.514 199.566C421.722 203.222 435.29 203.554 438.012 200.397C442.921 194.701 442.969 178.359 444.25 171C445.935 161.318 447.831 151.671 449.576 142C452.033 128.373 455.227 114.73 457 101z"/>
<path style="fill:#54696a; stroke:none;" d="M418.333 101.667L418.667 102.333L418.333 101.667M440 101L441 102L440 101z"/>
<path style="fill:#0408ff; stroke:none;" d="M465 101L465 202L511 202L511 178L481 178L481 162L506 162L506 139L481 139L481 125L510 125L510 101L465 101z"/>
<path style="fill:#54696a; stroke:none;" d="M510 101L510 125L511 125L510 101z"/>
<path style="fill:#0408ff; stroke:none;" d="M520 101L520 202L535 202L535 154L536 154L550.576 186L558.498 200.821L572 202L572 101L558.603 102.028L557 115L557 151L541.424 117L533.606 102.028L520 101z"/>
<path style="fill:#54696a; stroke:none;" d="M534 101L535 102L534 101M557 101L558 102L557 101z"/>
<path style="fill:#0408ff; stroke:none;" d="M584 101L584 202L630 202L630 178L600 178L600 162L625 162L625 139L600 139L600 125L629 125L629 101L584 101z"/>
<path style="fill:#54696a; stroke:none;" d="M629 101L629 125L630 125L629 101M748 101L748 106L749 106L748 101M807 101L808 102L807 101z"/>
<path style="fill:#0408ff; stroke:none;" d="M835 101L835 202L851 202L851 165L859 165L864.873 191L868.564 200.972L886 202C883.428 189.538 874.73 173.76 875.579 161.09C876.017 154.545 882.876 148.316 883.841 141C885.472 128.636 885.637 108.601 871.985 102.533C861.905 98.0529 845.887 101 835 101z"/>
<path style="fill:#54696a; stroke:none;" d="M869.667 101.333L870.333 101.667L869.667 101.333z"/>
<path style="fill:#0408ff; stroke:none;" d="M895 101L895 202L911 202C911 188.059 910.145 175.798 922 166L932 202L952 202L938.667 162L933.127 143.424L951 101L931.418 102.028L925.15 114L912 145L911 145L911 101L895 101z"/>
<path style="fill:#54696a; stroke:none;" d="M911 101L911 145L912 145C913.237 133.746 915.359 111.387 911 101M930 101L931 102L930 101M1031 101L1031 198L1032 198L1032 131L1031 101z"/>
<path style="fill:#020202; stroke:none;" d="M1032 101L1032 198L1074 198L1074 175L1047 175L1047 160L1070 160L1070 138L1047 138L1047 124L1074 124L1074 101L1032 101z"/>
<path style="fill:#54696a; stroke:none;" d="M123 102L124 103L123 102M156 102L157 103L156 102M186 102L187 103L186 102M736 102L736 106L737 106L736 102M785 102L786 103L785 102M872 102L873 103L872 102M209 103L210 104L209 103M535 103L536 104L535 103M783 103L784 104L783 103M810 103L811 104L810 103M874 103L875 104L874 103M929 103L930 104L929 103M950 103L951 104L950 103M122 104L123 105L122 104M157 104L158 105L157 104M187 104L188 105L187 104M384.333 104.667L384.667 105.333L384.333 104.667M456.333 104.667L456.667 105.333L456.333 104.667M707 104L707 108L708 108L707 104M782 104L783 105L782 104M811 104L812 105L811 104M875 104L876 105L875 104M363.333 105.667L363.667 106.333L363.333 105.667M401.333 105.667L401.667 106.333L401.333 105.667M439.333 105.667L439.667 106.333L439.333 105.667M536 105L537 106L536 105M781 105L782 106L781 105M949 105L950 106L949 105M121 106L122 107L121 106M188 106L189 107L188 106M207 106L208 107L207 106M690 106L690 110L691 110L690 106M764 106L764 110L765 110L764 106M780 106L781 107L780 106M877 106L878 107L877 106M928 106L929 107L928 106M159 107L160 108L159 107M419.333 107.667L419.667 108.333L419.333 107.667M779 107L780 108L779 107M814 107L815 108L814 107M878 107L879 108L878 107M948 107L949 108L948 107M537 108L538 109L537 108M778 108L779 109L778 108M815 108L816 109L815 108M927 108L928 109L927 108M119 109L120 110L119 109M160 109L161 110L160 109M190 109L191 110L190 109M205 109L206 110L205 109M385.333 109.667L385.667 110.333L385.333 109.667M455 109L455 112L456 112L455 109M718 109L718 113L719 113L718 109M947 109L948 110L947 109z"/>
<path style="fill:#020202; stroke:none;" d="M234 110C227.905 119.033 213.424 133.19 211.788 144C210.934 149.64 218.302 158.28 220.999 163C230.524 179.666 239.403 196.986 250 213C257.462 204.412 268.924 186.695 268.92 175C268.917 167.239 263.839 160.448 260.15 154C251.971 139.702 244.569 122.624 234 110z"/>
<path style="fill:#54696a; stroke:none;" d="M362.333 110.667L362.667 111.333L362.333 110.667M402.333 110.667L402.667 111.333L402.333 110.667M538 110L539 111L538 110M880 110L881 111L880 110M926 110L927 111L926 110M118 111L119 112L118 111M161 111L162 112L161 111M191 111L192 112L191 111M235 111L236 112L235 111M438.333 111.667L438.667 112.333L438.333 111.667M737 111L737 115L738 115L737 111M747 111L747 116L748 116L747 111M776 111L777 112L776 111M817 111L818 112L817 111M162 112L163 113L162 112M203 112L204 113L203 112M232 112L233 113L232 112M539 112L540 113L539 112M881 112L882 113L881 112M946 112L947 113L946 112M192 113L193 114L192 113M202 113L203 114L202 113M236 113L237 114L236 113M420 113L420 116L421 116L420 113M708 113L708 117L709 117L708 113M775 113L776 114L775 113M818 113L819 114L818 113M925 113L926 114L925 113M116 114L117 115L116 114M163 114L164 115L163 114M193.333 114.667L193.667 115.333L193.333 114.667M237.333 114.667L237.667 115.333L237.333 114.667M386 114L386 117L387 117L386 114M540 114L541 115L540 114M691 114L691 118L692 118L691 114M763 114L763 118L764 118L763 114M945 114L946 115L945 114M230 115L231 116L230 115M361 115L361 118L362 118L361 115M403 115L403 118L404 118L403 115M454.333 115.667L454.667 116.333L454.333 115.667M774 115L775 116L774 115M819 115L820 116L819 115M882 115L883 116L882 115M924 115L925 116L924 115M115 116L116 117L115 116M164 116L165 117L164 116M194 116L195 117L194 116M200 116L201 117L200 116M238 116L239 117L238 116M944 116L945 117L944 116M437 117L437 120L438 120L437 117M541 117L542 118L541 117M773.333 117.667L773.667 118.333L773.333 117.667M820 117L821 118L820 117M923 117L924 118L923 117M165 118L166 119L165 118M195 118L196 119L195 118M228 118L229 119L228 118M239 118L240 119L239 118M717 118L717 123L718 123L717 118M883.333 118.667L883.667 119.333L883.333 118.667M943 118L944 119L943 118M198 119L199 120L198 119M227 119L228 120L227 119M542 119L543 120L542 119M196 120L197 121L196 120M240 120L241 121L240 120M360.333 120.667L360.667 121.333L360.333 120.667M387.333 120.667L387.667 121.333L387.333 120.667M421.333 120.667L421.667 121.333L421.333 120.667M453 120L453 123L454 123L453 120M738 120L738 124L739 124L738 120M772.333 120.667L772.667 121.333L772.333 120.667M821 120L822 121L821 120M922 120L923 121L922 120M167 121L168 122L167 121M404.333 121.667L404.667 122.333L404.333 121.667M543 121L544 122L543 121M746 121L746 126L747 126L746 121M942 121L943 122L942 121M709 122L709 127L710 127L709 122M921 122L922 123L921 122M1153.67 122.333L1154.33 122.667L1153.67 122.333z"/>
<path style="fill:#020202; stroke:none;" d="M1145 134L1144 134L1143 124L1132 124L1132 226L1145 226L1145 192C1157.07 202.691 1166.21 199.231 1170.1 183C1173.73 167.86 1173.79 147.675 1168.29 133C1163.18 119.375 1149.11 120.175 1145 134z"/>
<path style="fill:#54696a; stroke:none;" d="M1158.67 122.333L1159.33 122.667L1158.67 122.333M1218.67 122.333L1219.33 122.667L1218.67 122.333z"/>
<path style="fill:#020202; stroke:none;" d="M1220 122.533C1197.61 127.435 1199.76 166.522 1204.72 183C1207.56 192.419 1215.04 201.565 1226 199.305C1248.45 194.674 1246.21 155.376 1241.28 139C1238.49 129.753 1230.88 120.152 1220 122.533z"/>
<path style="fill:#54696a; stroke:none;" d="M1226.67 122.333L1227.33 122.667L1226.67 122.333M1272.67 122.333L1273.33 122.667L1272.67 122.333z"/>
<path style="fill:#020202; stroke:none;" d="M1264 134L1263 123L1252 123L1252 198L1265 198C1265 184.497 1258.39 147.474 1278 147C1278 140.464 1279.63 131.48 1277.68 125.232C1275.81 119.226 1268.4 125.006 1266.67 128.039C1265.61 129.911 1264.89 132.039 1264 134z"/>
<path style="fill:#54696a; stroke:none;" d="M1276.67 122.333L1277.33 122.667L1276.67 122.333M1299 122L1299 123L1302 123L1299 122z"/>
<path style="fill:#020202; stroke:none;" d="M1325 172L1312 172C1311.09 177.754 1305.29 185.962 1299.7 178.852C1296.86 175.228 1297.01 170.348 1297 166L1325 166C1325 153.638 1325.78 137.871 1316.79 128.055C1297.17 106.642 1283.19 141.217 1283 157C1282.86 169.082 1282.77 185.712 1292.19 194.786C1309.52 211.501 1324.87 188.268 1325 172z"/>
<path style="fill:#54696a; stroke:none;" d="M1306 122L1306 123L1309 123L1306 122M1353 122L1354 123L1353 122z"/>
<path style="fill:#020202; stroke:none;" d="M1345 134L1344 123L1333 123L1333 198L1346 198C1346 184.497 1339.39 147.474 1359 147C1359 140.451 1360.62 131.495 1358.68 125.229C1356.77 119.032 1349.44 124.92 1347.67 128.039C1346.61 129.913 1345.89 132.038 1345 134z"/>
<path style="fill:#54696a; stroke:none;" d="M1357.67 122.333L1358.33 122.667L1357.67 122.333M111 123L112 124L111 123M168 123L169 124L168 123M242 123L243 124L242 123M544 123L545 124L544 123M692 123L692 126L693 126L692 123M762 123L762 126L763 126L762 123M793 123L792 125L793 123z"/>
<path style="fill:#fefeff; stroke:none;" d="M794.093 123.863C781.896 129.016 784.727 158.848 787.24 169C788.639 174.652 792.99 181.952 799.957 179.253C811.971 174.6 809.486 143.762 806.841 134C805.324 128.401 801.155 120.879 794.093 123.863z"/>
<path style="fill:#54696a; stroke:none;" d="M800 123L801 124L800 123M822.333 123.667L822.667 124.333L822.333 123.667M941 123L942 124L941 123z"/>
<path style="fill:#020202; stroke:none;" d="M1080 123L1092.46 158L1079 198C1082.91 198 1089.01 199.151 1092.58 197.397C1097.7 194.885 1099.91 179.257 1101 174L1102 174L1109 198L1125 198L1112.04 159L1124 123L1109 123L1103 143L1095.49 124.028L1080 123z"/>
<path style="fill:#54696a; stroke:none;" d="M1096 123L1097 124L1096 123M1124 123L1125 124L1124 123M1151 123L1152 124L1151 123M1161 123L1162 124L1161 123M1216 123L1217 124L1216 123M1229 123L1230 124L1229 123M1251 123L1251 198L1252 198L1252 146L1251 123M1270 123L1271 124L1270 123M1278 123L1278 147L1279 147L1278 123M1297 123L1298 124L1297 123M1310.67 123.333L1311.33 123.667L1310.67 123.333M1332 123L1332 198L1333 198L1333 146L1332 123M1351 123L1352 124L1351 123M1359 123L1359 147L1360 147L1359 123M436.333 124.667L436.667 125.333L436.333 124.667M771 124L772 125L771 124M801 124L802 125L801 124M851 124L851 142L852 142L851 124z"/>
<path style="fill:#fefeff; stroke:none;" d="M852 124L852 142C855.599 142 860.627 142.858 863.856 140.972C869.007 137.964 869.007 128.036 863.856 125.028C860.627 123.142 855.599 124 852 124z"/>
<path style="fill:#54696a; stroke:none;" d="M864 124L865 125L864 124M884 124L884 128L885 128L884 124M920 124L921 125L920 124M1080 124L1081 125L1080 124M1108.33 124.667L1108.67 125.333L1108.33 124.667M1131 124L1131 226L1132 226L1132 155L1131 124M1150 124L1151 125L1150 124M1214 124L1215 125L1214 124M1231 124L1232 125L1231 124M1295 124L1296 125L1295 124M110 125L111 126L110 125M223 125L224 126L223 125M243 125L244 126L243 125M359.333 125.667L359.667 126.333L359.333 125.667M388.333 125.667L388.667 126.333L388.333 125.667M481 125L481 139L482 139L481 125M600 125L600 139L601 139L600 125M865 125L866 126L865 125M940 125L941 126L940 125M1123.33 125.667L1123.67 126.333L1123.33 125.667M1149 125L1150 126L1149 125M1212 125L1213 126L1212 125M1233 125L1234 126L1233 125M1314 125L1315 126L1314 125M313 126L313 156L314 156L313 126M405 126L405 129L406 129L405 126M422.333 126.667L422.667 127.333L422.333 126.667M452.333 126.667L452.667 127.333L452.333 126.667M545 126L546 127L545 126M653 126L653 201L654 201L654 149L653 126M790 126L791 127L790 126M866 126L867 127L866 126M1097 126L1098 127L1097 126M1148 126L1149 127L1148 126M1211 126L1212 127L1211 126M1234 126L1235 127L1234 126M1267 126L1268 127L1267 126M1292 126L1293 127L1292 126M1315 126L1316 127L1315 126M1348 126L1349 127L1348 126M789 127L790 128L789 127M804 127L805 128L804 127M823.333 127.667L823.667 128.333L823.333 127.667M919 127L920 128L919 127M939 127L940 128L939 127M1081 127L1082 128L1081 127M1143 127L1143 131L1144 131L1143 127M1147 127L1148 128L1147 127M1165 127L1166 128L1165 127M1210 127L1211 128L1210 127M1235 127L1236 128L1235 127M1263 127L1264 134L1265 134L1263 127M1266 127L1267 128L1266 127M1291 127L1292 128L1291 127M1316 127L1317 128L1316 127M1344 127L1345 134L1346 134L1344 127M1347 127L1348 128L1347 127M171 128L172 129L171 128M221 128L222 129L221 128M546 128L547 129L546 128M716 128L716 132L717 132L716 128M770.333 128.667L770.667 129.333L770.333 128.667M1107 128L1108 129L1107 128M1122 128L1123 129L1122 128M1166 128L1167 129L1166 128M1209 128L1210 129L1209 128M1236 128L1237 129L1236 128M1317 128L1318 129L1317 128M373 129L374 130L373 129M435 129L435 132L436 132L435 129M739 129L739 133L740 133L739 129M788 129L789 130L788 129M805 129L806 130L805 129M867.333 129.667L867.667 130.333L867.333 129.667M918 129L919 130L918 129M938 129L939 130L938 129M1082.33 129.667L1082.67 130.333L1082.33 129.667M1098.33 129.667L1098.67 130.333L1098.33 129.667M1146 129L1147 130L1146 129M1265.33 129.667L1265.67 130.333L1265.33 129.667M1318 129L1319 130L1318 129M1346.33 129.667L1346.67 130.333L1346.33 129.667M107 130L108 131L107 130M172 130L173 131L172 130M246 130L247 131L246 130M358 130L358 133L359 133L358 130z"/>
<path style="fill:#fefeff; stroke:none;" d="M373 130L368 165L379 165C378.8 155.316 377.987 138.322 373 130z"/>
<path style="fill:#54696a; stroke:none;" d="M389.333 130.667L389.667 131.333L389.333 130.667M547 130L548 131L547 130M1167 130L1168 131L1167 130M1208 130L1209 131L1208 130M1237 130L1238 131L1237 130M1289 130L1290 131L1289 130M219 131L220 132L219 131M374.333 131.667L374.667 132.333L374.333 131.667M451.333 131.667L451.667 132.333L451.333 131.667M693 131L693 134L694 134L693 131M761 131L761 134L762 134L761 131M806.333 131.667L806.667 132.333L806.333 131.667M917 131L918 132L917 131M1106 131L1107 132L1106 131M1121 131L1122 132L1121 131M1145 131L1146 132L1145 131M1207 131L1208 132L1207 131M1238 131L1239 132L1238 131M1288 131L1289 132L1288 131M1319 131L1320 132L1319 131M106 132L107 133L106 132M247 132L248 133L247 132M406.333 132.667L406.667 133.333L406.333 132.667M423 132L423 135L424 135L423 132M548 132L549 133L548 132M710 132L710 136L711 136L710 132M745 132L745 136L746 136L745 132M787 132L788 133L787 132M937 132L938 133L937 132M1083 132L1084 133L1083 132M1099.33 132.667L1099.67 133.333L1099.33 132.667M1168.33 132.667L1168.67 133.333L1168.33 132.667M105 133L106 134L105 133M174 133L175 134L174 133M372 133L372 136L373 136L372 133M824 133L824 136L825 136L824 133M1120.33 133.667L1120.67 134.333L1120.33 133.667M1144 133L1145 134L1144 133M1206 133L1207 134L1206 133M1239 133L1240 134L1239 133M1287 133L1288 134L1287 133M1320 133L1321 134L1320 133M217 134L218 135L217 134M769 134L769 137L770 137L769 134M916 134L917 135L916 134M936 134L937 135L936 134M1105.33 134.667L1105.67 135.333L1105.33 134.667M104 135L105 136L104 135M175 135L176 136L175 135M249 135L250 136L249 135M390 135L390 138L391 138L390 135M549 135L550 136L549 135M786 135L786 138L787 138L786 135M807.333 135.667L807.667 136.333L807.333 135.667M867.333 135.667L867.667 136.333L867.333 135.667M884 135L884 140L885 140L884 135M1084 135L1085 136L1084 135M1169.33 135.667L1169.67 136.333L1169.33 135.667M1205.33 135.667L1205.67 136.333L1205.33 135.667M1321 135L1322 136L1321 135M357.333 136.667L357.667 137.333L357.333 136.667M434.333 136.667L434.667 137.333L434.333 136.667M450 136L450 139L451 139L450 136M915 136L916 137L915 136M935 136L936 137L935 136M1100 136L1101 137L1100 136M1119 136L1120 137L1119 136M1240 136L1241 137L1240 136M1286 136L1287 137L1286 136M103 137L104 138L103 137M176 137L177 138L176 137M215 137L216 138L215 137M250 137L251 138L250 137M375 137L375 140L376 140L375 137M407.333 137.667L407.667 138.333L407.333 137.667M550 137L551 138L550 137M1085.33 137.667L1085.67 138.333L1085.33 137.667M1104.33 137.667L1104.67 138.333L1104.33 137.667M1322.33 137.667L1322.67 138.333L1322.33 137.667M424 138L424 141L425 141L424 138M715 138L715 142L716 142L715 138M740 138L740 142L741 142L740 138M914 138L915 139L914 138M934 138L935 139L934 138M1204.33 138.667L1204.67 139.333L1204.33 138.667M1241.33 138.667L1241.67 139.333L1241.33 138.667M1285.33 138.667L1285.67 139.333L1285.33 138.667M102 139L103 140L102 139M251 139L252 140L251 139M551 139L552 140L551 139M694 139L694 143L695 143L694 139M760 139L760 143L761 143L760 139M866 139L867 140L866 139M1101.33 139.667L1101.67 140.333L1101.33 139.667M1118 139L1119 140L1118 139M1170.33 139.667L1170.67 140.333L1170.33 139.667M178 140L179 141L178 140M213 140L214 141L213 140M371 140L371 143L372 143L371 140M727 140L728 141L727 140M865 140L866 141L865 140M913 140L914 141L913 140M1086 140L1087 141L1086 140M1301 140L1299 143L1301 140z"/>
<path style="fill:#fefeff; stroke:none;" d="M1297 153L1311 153C1310.34 137.848 1298.21 138.164 1297 153z"/>
<path style="fill:#54696a; stroke:none;" d="M1306 140L1307 141L1306 140M212 141L213 142L212 141M356.333 141.667L356.667 142.333L356.333 141.667M391.333 141.667L391.667 142.333L391.333 141.667M552 141L553 142L552 141M711 141L711 146L712 146L711 141M864 141L865 142L864 141M933 141L934 142L933 141M1103 141L1104 142L1103 141M1220 141L1221 142L1220 141z"/>
<path style="fill:#fefeff; stroke:none;" d="M1221.21 141.801C1213.2 144.623 1215.14 166.667 1216.68 173C1217.48 176.27 1219.72 181.226 1223.96 180.248C1232.88 178.19 1230.88 155.44 1229.32 149C1228.45 145.446 1225.77 140.195 1221.21 141.801z"/>
<path style="fill:#54696a; stroke:none;" d="M1225 141L1226 142L1225 141M1323.33 141.667L1323.67 142.333L1323.33 141.667M100 142L101 143L100 142M179 142L180 143L179 142M253 142L254 143L253 142M408 142L408 145L409 145L408 142M433 142L433 145L434 145L433 142M449.333 142.667L449.667 143.333L449.333 142.667M744 142L744 146L745 146L744 142M1102 142L1103 143L1102 142M1117 142L1118 143L1117 142M1203.33 142.667L1203.67 143.333L1203.33 142.667M1226 142L1227 143L1226 142M1242.33 142.667L1242.67 143.333L1242.33 142.667M1284.33 142.667L1284.67 143.333L1284.33 142.667M808 143L808 160L809 160L808 143M825 143L825 160L826 160L825 143M883.333 143.667L883.667 144.333L883.333 143.667M932 143L933 144L932 143M1087 143L1088 144L1087 143M1149 143L1148 145L1149 143z"/>
<path style="fill:#fefeff; stroke:none;" d="M1150.22 144.086C1143.57 147.452 1145.07 166.012 1146.53 171.999C1147.3 175.116 1149.81 179.922 1153.78 177.914C1160.43 174.548 1158.93 155.988 1157.47 150.001C1156.7 146.884 1154.19 142.078 1150.22 144.086z"/>
<path style="fill:#54696a; stroke:none;" d="M1154 143L1155 144L1154 143M1218 143L1219 144L1218 143M1227 143L1228 144L1227 143M1309 143L1310 144L1309 143M99 144L100 145L99 144M180 144L181 145L180 144M254 144L255 145L254 144M376.333 144.667L376.667 145.333L376.333 144.667M553 144L554 145L553 144M726 144L726 148L727 148L726 144M728 144L728 148L729 148L728 144M1116.33 144.667L1116.67 145.333L1116.33 144.667M1155 144L1156 145L1155 144M1298 144L1299 145L1298 144M425.333 145.667L425.667 146.333L425.333 145.667M768 145L768 158L769 158L768 145M1088.33 145.667L1088.67 146.333L1088.33 145.667M1171 145L1171 149L1172 149L1171 145M1217 145L1218 146L1217 145M1228 145L1229 146L1228 145M98 146L99 147L98 146M180 146L182 148L182 146L180 146M211 146L212 147L211 146M355 146L355 149L356 149L355 146M370 146L370 149L371 149L370 146M392.333 146.667L392.667 147.333L392.333 146.667M554 146L555 147L554 146M933 146L934 147L933 146M1147 146L1148 147L1147 146M1156 146L1157 147L1156 146M1310.33 146.667L1310.67 147.333L1310.33 146.667M1324 146L1324 150L1325 150L1324 146M448 147L448 150L449 150L448 147M695 147L695 151L696 151L695 147M714 147L714 152L715 152L714 147M741 147L741 151L742 151L741 147M759 147L759 151L760 151L759 147M785 147L785 156L786 156L785 147M882 147L883 148L882 147M1115 147L1116 148L1115 147M1202 147L1202 151L1203 151L1202 147M1216 147L1216 150L1217 150L1216 147M1229 147L1229 150L1230 150L1229 147M1243 147L1243 150L1244 150L1243 147M1271 147L1272 148L1271 147M1283 147L1283 151L1284 151L1283 147M1297.33 147.667L1297.67 148.333L1297.33 147.667M1352 147L1353 148L1352 147M98 148L99 149L98 148M176 148L176 149L181 149L176 148M212 148L213 149L212 148M409.333 148.667L409.667 149.333L409.333 148.667M432 148L432 151L433 151L432 148M555 148L556 149L555 148M1089 148L1090 149L1089 148M1146.33 148.667L1146.67 149.333L1146.33 148.667M1157.33 148.667L1157.67 149.333L1157.33 148.667M1269 148L1270 149L1269 148M1350 148L1351 149L1350 148M213 149L214 150L213 149M257 149L258 150L257 149M934 149L935 150L934 149M1268 149L1269 150L1268 149M1349 149L1350 150L1349 149M377 150L377 153L378 153L377 150M556 150L557 151L556 150M881 150L882 151L881 150M1114 150L1115 151L1114 150M214 151L215 152L214 151M258 151L259 152L258 151M354 151L354 154L355 154L354 151M393.333 151.667L393.667 152.333L393.333 151.667M426 151L426 154L427 154L426 151M712 151L712 155L713 155L712 151M1090 151L1091 152L1090 151M1267 151L1268 152L1267 151M1348 151L1349 152L1348 151M743 152L743 156L744 156L743 152M880 152L881 153L880 152M935 152L936 153L935 152M1113.33 152.667L1113.67 153.333L1113.33 152.667M215 153L216 154L215 153M369.333 153.667L369.667 154.333L369.333 153.667M410 153L410 156L411 156L410 153M447.333 153.667L447.667 154.333L447.333 153.667M725 153L725 157L726 157L725 153M729 153L729 157L730 157L729 153M1091.33 153.667L1091.67 154.333L1091.33 153.667M1145 153L1145 169L1146 169L1145 153M1266.33 153.667L1266.67 154.333L1266.33 153.667M1347.33 153.667L1347.67 154.333L1347.33 153.667M260 154L261 155L260 154M431 154L431 157L432 157L431 154M535 154L536 155L535 154M536 155L537 156L536 155M878 155L879 156L878 155M936 155L937 156L936 155M1112 155L1113 156L1112 155M217 156L218 157L217 156M261 156L262 157L261 156M394 156L394 159L395 159L394 156M696 156L696 159L697 159L696 156M742.333 156.667L742.667 157.333L742.333 156.667M758 156L758 159L759 159L758 156M877 156L878 157L877 156M1092 156L1093 157L1092 156M353.333 157.667L353.667 158.333L353.333 157.667M378.333 157.667L378.667 158.333L378.333 157.667M427 157L427 160L428 160L427 157M537 157L538 158L537 157M713 157L714 158L713 157M1230 157L1230 165L1231 165L1230 157M218 158L219 159L218 158M262 158L263 159L262 158M446 158L446 161L447 161L446 158M875 158L876 159L875 158M937 158L938 159L937 158M1111.33 158.667L1111.67 159.333L1111.33 158.667M1158 158L1158 164L1159 164L1158 158M32 159L33 160L32 159M263 159L264 160L263 159M368 159L368 162L369 162L368 159M411.333 159.667L411.667 160.333L411.333 159.667M1092.33 159.667L1092.67 160.333L1092.33 159.667M1265 159L1265 198L1266 198C1266 186.828 1269.31 169.274 1265 159M1346 159L1346 198L1347 198C1347 186.828 1350.31 169.274 1346 159M219 160L220 161L219 160M312 160L313 161L312 160M538 160L539 161L538 160M1172.33 160.667L1172.67 161.333L1172.33 160.667M1244.33 160.667L1244.67 161.333L1244.33 160.667M1325 160L1325 166L1326 166L1325 160M264 161L265 162L264 161M430 161L430 164L431 164L430 161M938 161L939 162L938 161M352.333 162.667L352.667 163.333L352.333 162.667M395.333 162.667L395.667 163.333L395.333 162.667M481 162L481 178L482 178L481 162M539 162L540 163L539 162M600 162L600 178L601 178L600 162M724 162L724 166L725 166L724 162M730 162L730 166L731 166L730 162M875 162L876 163L875 162M1091 162L1092 163L1091 162M1112 162L1113 163L1112 162M221 163L222 164L221 163M379.333 163.667L379.667 164.333L379.333 163.667M412.333 164.667L412.667 165.333L412.333 164.667M428.333 164.667L428.667 165.333L428.333 164.667M445.333 164.667L445.667 165.333L445.333 164.667M540 164L541 165L540 164M697 164L697 167L698 167L697 164M757 164L757 167L758 167L757 164M939 164L940 165L939 164M222 165L223 166L222 165M266 165L267 166L266 165M786 165L786 168L787 168L786 165M851 165L851 202L852 202C852 191.351 855.111 174.798 851 165M858.333 165.667L858.667 166.333L858.333 165.667M1090 165L1091 166L1090 165M1113 165L1114 166L1113 165M541 166L542 167L541 166M769 166L769 169L770 169L769 166M807.333 166.667L807.667 167.333L807.333 166.667M876 166L877 167L876 166M921 166L922 167L921 166M223 167L224 168L223 167M267 167L268 168L267 167M351.333 167.667L351.667 168.333L351.333 167.667M396.333 167.667L396.667 168.333L396.333 167.667M429 167L430 168L429 167M824 167L824 170L825 170L824 167M919 167L920 168L919 167M940 167L941 168L940 167M1089.33 167.667L1089.67 168.333L1089.33 167.667M1114.33 167.667L1114.67 168.333L1114.33 167.667M542 168L543 169L542 168M413.333 169.667L413.667 170.333L413.333 169.667M444.333 169.667L444.667 170.333L444.333 169.667M859.333 169.667L859.667 170.333L859.333 169.667M877.333 169.667L877.667 170.333L877.333 169.667M922.333 169.667L922.667 170.333L922.333 169.667M268 170L269 171L268 170M787 170L788 171L787 170M806.333 170.667L806.667 171.333L806.333 170.667M917 170L918 171L917 170M941 170L942 171L941 170M1088 170L1089 171L1088 170M1115 170L1116 171L1115 170M723 171L723 175L724 175L723 171M731 171L731 175L732 175L731 171M1202 171L1202 175L1203 175L1202 171M1243 171L1243 175L1244 175L1243 171M1283 171L1283 175L1284 175L1283 171M1312 171L1312 172L1325 172L1312 171M226 172L227 173L226 172M397.333 172.667L397.667 173.333L397.333 172.667M698 172L698 176L699 176L698 172M756 172L756 176L757 176L756 172M1146.33 172.667L1146.67 173.333L1146.33 172.667M1157.33 172.667L1157.67 173.333L1157.33 172.667M1216 172L1216 175L1217 175L1216 172M1229 172L1229 175L1230 175L1229 172M1311 172L1311 176L1312 176L1311 172M350.333 173.667L350.667 174.333L350.333 173.667M544 173L545 174L544 173M770.333 173.667L770.667 174.333L770.333 173.667M788 173L789 174L788 173M805 173L806 174L805 173M860.333 173.667L860.667 174.333L860.333 173.667M878 173L879 174L878 173M915 173L916 174L915 173M923 173L924 174L923 173M942 173L943 174L942 173M1087 173L1088 174L1087 173M1116 173L1117 174L1116 173M1171 173L1171 177L1172 177L1171 173M1297.33 173.667L1297.67 174.333L1297.33 173.667M82 176C104.254 170.702 132.116 175 155 175C149.784 172.811 142.619 174 137 174L100 174C95.0992 174 85.4072 172.101 82 176M190 174L190 175L193 175L190 174M227 174L228 175L227 174M823.333 174.667L823.667 175.333L823.333 174.667M1101 174L1102 175L1101 174z"/>
<path style="fill:#020202; stroke:none;" d="M83 175C85.1077 185.93 96.7321 206.526 107 211.427C116.105 215.774 131.086 213 141 213L219 213C216.817 203.458 209.551 194.361 204.603 186C202.722 182.82 201.105 177.985 197.787 176.028C190.686 171.839 174.158 175 166 175L83 175z"/>
<path style="fill:#54696a; stroke:none;" d="M414.333 175.667L414.667 176.333L414.333 175.667M443.333 175.667L443.667 176.333L443.333 175.667M545 175L546 176L545 175M789 175L790 176L789 175M804 175L805 176L804 175M1074 175L1074 198L1075 198L1074 175M1086.33 175.667L1086.67 176.333L1086.33 175.667M1117.33 175.667L1117.67 176.333L1117.33 175.667M1147 175L1148 176L1147 175M1156 175L1157 176L1156 175M790 176L791 177L790 176M879.333 176.667L879.667 177.333L879.333 176.667M913 176L914 177L913 176M924 176L925 177L924 176M943 176L944 177L943 176M1100.33 176.667L1100.67 177.333L1100.33 176.667M1102 176L1103 177L1102 176M1217 176L1218 177L1217 176M1228 176L1229 177L1228 176M229 177L230 178L229 177M398 177L398 180L399 180L398 177M546 177L547 178L546 177M861.333 177.667L861.667 178.333L861.333 177.667M1148 177L1149 178L1148 177M1155 177L1156 178L1155 177M1298 177L1299 178L1298 177M1310.33 177.667L1310.67 178.333L1310.33 177.667M83 178L84 179L83 178M349.333 178.667L349.667 179.333L349.333 178.667M771 178L772 179L771 178M792 178L793 179L792 178M822.333 178.667L822.667 179.333L822.333 178.667M912 178L913 179L912 178M1085.33 178.667L1085.67 179.333L1085.33 178.667M1118.33 178.667L1118.67 179.333L1118.33 178.667M1149 178L1150 179L1149 178M1154 178L1155 179L1154 178M1203.33 178.667L1203.67 179.333L1203.33 178.667M1218 178L1219 179L1218 178M1227 178L1228 179L1227 178M1242.33 178.667L1242.67 179.333L1242.33 178.667M1284.33 178.667L1284.67 179.333L1284.33 178.667M230 179L231 180L230 179M268.333 179.667L268.667 180.333L268.333 179.667M547 179L548 180L547 179M793 179L794 180L793 179M800 179L801 180L800 179M911 179L911 202L912 202L911 179M925.333 179.667L925.667 180.333L925.333 179.667M944 179L945 180L944 179M1103 179L1104 180L1103 179M1219 179L1220 180L1219 179M1226 179L1227 180L1226 179M1299 179L1300 180L1299 179M1309 179L1310 180L1309 179M1324 179L1324 182L1325 182L1324 179M201 180L202 181L201 180M415.333 180.667L415.667 181.333L415.333 180.667M442.333 180.667L442.667 181.333L442.333 180.667M699 180L699 184L700 184L699 180M722 180L722 184L723 184L722 180M755 180L755 184L756 184L755 180M880.333 180.667L880.667 181.333L880.333 180.667M1099 180L1100 181L1099 180M1220 180L1221 181L1220 180M1225 180L1226 181L1225 180M1300 180L1301 181L1300 180M85 181L86 182L85 181M231 181L232 182L231 181M548 181L549 182L548 181M732 181L732 184L733 184L732 181M772.333 181.667L772.667 182.333L772.333 181.667M862.333 181.667L862.667 182.333L862.333 181.667M1084 181L1085 182L1084 181M1119 181L1120 182L1119 181M1170.33 181.667L1170.67 182.333L1170.33 181.667M1301 181L1302 182L1301 181M1307 181L1308 182L1307 181M202 182L203 183L202 182M267 182L268 183L267 182M821 182L822 183L821 182M945 182L946 183L945 182M1104.33 182.667L1104.67 183.333L1104.33 182.667M1204.33 182.667L1204.67 183.333L1204.33 182.667M1241.33 182.667L1241.67 183.333L1241.33 182.667M1285.33 182.667L1285.67 183.333L1285.33 182.667M86 183L87 184L86 183M348.333 183.667L348.667 184.333L348.333 183.667M399.333 183.667L399.667 184.333L399.333 183.667M549 183L550 184L549 183M926 183L927 184L926 183M1098 183L1099 184L1098 183M203 184L204 185L203 184M233 184L234 185L233 184M773.333 184.667L773.667 185.333L773.333 184.667M881 184L882 185L881 184M1083 184L1084 185L1083 184M1120 184L1121 185L1120 184M1323.33 184.667L1323.67 185.333L1323.33 184.667M87 185L88 186L87 185M416 185L416 188L417 188L416 185M441 185L441 188L442 188L441 185M550.333 185.667L550.667 186.333L550.333 185.667M820 185L821 186L820 185M863.333 185.667L863.667 186.333L863.333 185.667M946 185L947 186L946 185M1105.33 185.667L1105.67 186.333L1105.33 185.667M1169.33 185.667L1169.67 186.333L1169.33 185.667M1205 185L1206 186L1205 185M1240 185L1241 186L1240 185M1286 185L1287 186L1286 185M234 186L235 187L234 186M927 186L928 187L927 186M1082.33 186.667L1082.67 187.333L1082.33 186.667M1097.33 186.667L1097.67 187.333L1097.33 186.667M1121.33 186.667L1121.67 187.333L1121.33 186.667M205 187L206 188L205 187M774 187L775 188L774 187M819 187L820 188L819 187M882.333 187.667L882.667 188.333L882.333 187.667M1322 187L1323 188L1322 187M264 188L265 189L264 188M347.333 188.667L347.667 189.333L347.333 188.667M400.333 188.667L400.667 189.333L400.333 188.667M551 188L552 189L551 188M700 188L700 192L701 192L700 188M754 188L754 192L755 192L754 188M947 188L948 189L947 188M1168.33 188.667L1168.67 189.333L1168.33 188.667M1206 188L1207 189L1206 188M1239 188L1240 189L1239 188M1287 188L1288 189L1287 188M206 189L207 190L206 189M383 189L383 192L384 192L383 189M775 189L776 190L775 189M818 189L819 190L818 189M864.333 189.667L864.667 190.333L864.333 189.667M928.333 189.667L928.667 190.333L928.333 189.667M1081 189L1082 190L1081 189M1096.33 189.667L1096.67 190.333L1096.33 189.667M1106 189L1107 190L1106 189M1122 189L1123 190L1122 189M1321 189L1322 190L1321 189M90 190L91 191L90 190M263 190L264 191L263 190M552 190L553 191L552 190M721 190L721 193L722 193L721 190M733 190L733 193L734 193L733 190M1207 190L1208 191L1207 190M1238 190L1239 191L1238 190M1288 190L1289 191L1288 190M237 191L238 192L237 191M363 191L363 194L364 194L363 191M417.333 191.667L417.667 192.333L417.333 191.667M440.333 191.667L440.667 192.333L440.333 191.667M776 191L777 192L776 191M817 191L818 192L817 191M883 191L884 192L883 191M948 191L949 192L948 191M1167 191L1168 192L1167 191M1208 191L1209 192L1208 191M1237 191L1238 192L1237 191M1289 191L1290 192L1289 191M1320 191L1321 192L1320 191M91 192L92 193L91 192M208 192L209 193L208 192M553 192L554 193L553 192M1080 192L1081 193L1080 192M1107.33 192.667L1107.67 193.333L1107.33 192.667M1123 192L1124 193L1123 192M1145 192L1145 226L1146 226L1147 192L1145 192M238 193L239 194L238 193M346 193L346 196L347 196L346 193M401.333 193.667L401.667 194.333L401.333 193.667M865.333 193.667L865.667 194.333L865.333 193.667M929 193L930 194L929 193M1095 193L1096 194L1095 193M1166 193L1167 194L1166 193M209 194L210 195L209 194M554 194L555 195L554 194M778 194L779 195L778 194M815 194L816 195L815 194M884.333 194.667L884.667 195.333L884.333 194.667M949 194L950 195L949 194M1079.33 194.667L1079.67 195.333L1079.33 194.667M1147 194L1148 195L1147 194M1165 194L1166 195L1165 194M1210 194L1211 195L1210 194M1235 194L1236 195L1235 194M1291 194L1292 195L1291 194M1318 194L1319 195L1318 194M93 195L94 196L93 195M260 195L261 196L260 195M384 195L384 198L385 198L384 195M779 195L780 196L779 195M814 195L815 196L814 195M1108.33 195.667L1108.67 196.333L1108.33 195.667M1124 195L1125 196L1124 195M1148 195L1149 196L1148 195M1211 195L1212 196L1211 195M1234 195L1235 196L1234 195M1317 195L1318 196L1317 195M418.333 196.667L418.667 197.333L418.333 196.667M439 196L439 199L440 199L439 196M555 196L556 197L555 196M780 196L781 197L780 196M930 196L931 197L930 196M1094 196L1095 197L1094 196M94 197L95 198L94 197M259 197L260 198L259 197M701 197L701 200L702 200L701 197M753 197L753 200L754 200L753 197M781 197L782 198L781 197M866.333 197.667L866.667 198.333L866.333 197.667M950 197L951 198L950 197M1078 197L1079 198L1078 197M1125 197L1126 198L1125 197M1150 197L1151 198L1150 197M1214 197L1215 198L1214 197M1231 197L1232 198L1231 197M1295 197L1296 198L1295 197M1314 197L1315 198L1314 197M241 198L242 199L241 198M362 198L362 201L363 201L362 198M556.333 198.667L556.667 199.333L556.333 198.667M782 198L783 199L782 198M811 198L812 199L811 198M885.333 198.667L885.667 199.333L885.333 198.667M1151 198L1152 199L1151 198M1161 198L1162 199L1161 198M1216 198L1217 199L1216 198M1229 198L1230 199L1229 198M1297 198L1298 199L1297 198M1312 198L1313 199L1312 198M212 199L213 200L212 199M258 199L259 200L258 199M345 199L345 202L346 202L345 199M402 199L402 202L403 202L402 199M720 199L720 202L721 202L720 199M734 199L734 202L735 202L734 199M783 199L784 200L783 199M810 199L811 200L810 199M931.333 199.667L931.667 200.333L931.333 199.667M1153.67 199.333L1154.33 199.667L1153.67 199.333M1158.67 199.333L1159.33 199.667L1158.67 199.333M1218 199L1218 200L1221 200L1218 199M1225 199L1225 200L1228 200L1225 199M1300 199L1300 200L1303 200L1300 199M1307 199L1307 200L1310 200L1307 199M96 200L97 201L96 200M242 200L243 201L242 200M951 200L952 201L951 200M213 201L214 202L213 201M385 201L386 202L385 201M419.667 201.333L420.333 201.667L419.667 201.333M438 201L439 202L438 201M558 201L559 202L558 201M656 201L656 202L668 202L656 201M786 201L787 202L786 201M807 201L808 202L807 201M867 201L868 202L867 201M97 202L98 203L97 202M256 202L257 203L256 202M352 202L352 203L355 203L352 202M789 202L790 203L789 202M804.667 202.333L805.333 202.667L804.667 202.333M792 203L792 204L795 204L792 203M799 203L799 204L802 204L799 203M215 204L216 205L215 204M255 204L256 205L255 204M99 205L100 206L99 205M245 205L246 206L245 205M100 206L101 207L100 206M216 206L217 207L216 206M254 206L255 207L254 206M101 207L102 208L101 207M246 207L247 208L246 207M102 208L103 209L102 208M217 208L218 209L217 208M103 209L104 210L103 209M218 209L219 210L218 209M252 209L253 210L252 209M248 210L249 211L248 210M106 211L107 212L106 211M251 211L252 212L251 211M109 212L110 213L109 212M219 212L220 213L219 212M249 212L250 213L249 212M168 282L168 283L178 283L168 282z"/>
<path style="fill:#020202; stroke:none;" d="M0 284L0 286L1374 286L1374 284L0 284z"/>
</svg>
