<svg width="63" height="41" viewBox="0 0 63 41" fill="none" xmlns="http://www.w3.org/2000/svg">
<path fill-rule="evenodd" clip-rule="evenodd" d="M32.8415 4.89903C35.8989 7.245 38.2039 10.4166 39.4953 14.023C39.801 14.8767 39.2748 15.7799 38.399 16.0146L33.324 17.3744C32.4482 17.6091 31.5587 17.0826 31.2014 16.2493C30.431 14.4524 29.2097 12.8735 27.6443 11.6722C25.6424 10.1362 23.1897 9.30355 20.6664 9.30355C18.1431 9.30355 15.6904 10.1362 13.6885 11.6722C11.6867 13.2083 10.2476 15.362 9.59453 17.7993C8.94145 20.2366 9.11086 22.8213 10.0765 25.1525C11.0421 27.4837 12.7499 29.4311 14.9352 30.6928C16.7778 31.7566 18.8731 32.2827 20.9847 32.224C21.6477 32.2056 22.2858 32.52 22.6409 33.0801C23.5443 34.5054 24.6041 35.8302 25.803 37.0291C25.9165 37.1426 26.0311 37.2549 26.1469 37.3659C27.0664 38.2477 26.8483 39.8291 25.614 40.1443C24.8476 40.3399 24.0674 40.4907 23.2769 40.5948C18.9119 41.1694 14.4793 40.2877 10.6664 38.0864C6.85363 35.8851 3.87373 32.4871 2.18891 28.4196C0.504086 24.3521 0.208499 19.8423 1.34799 15.5896C2.48749 11.337 4.99838 7.57918 8.49124 4.89902C11.9841 2.21885 16.2637 0.766113 20.6664 0.766113C25.0691 0.766115 29.3487 2.21886 32.8415 4.89903Z" fill="black"/>
<path d="M22.7462 25.9423C23.8857 30.195 26.3966 33.9528 29.8894 36.633C33.3823 39.3131 37.6619 40.7659 42.0646 40.7659C46.4672 40.7659 50.7469 39.3131 54.2397 36.633C57.7326 33.9528 60.2435 30.195 61.383 25.9423C62.5225 21.6897 62.2269 17.1799 60.5421 13.1124C58.8572 9.04485 55.8773 5.64692 52.0645 3.44559C48.2517 1.24426 43.8191 0.362552 39.4541 0.937212C35.0891 1.51187 31.0357 3.51079 27.9225 6.62393L33.9594 12.6608C35.7436 10.8766 38.0667 9.73097 40.5684 9.40161C43.0701 9.07226 45.6106 9.57759 47.7958 10.8392C49.981 12.1009 51.6889 14.0483 52.6545 16.3795C53.6201 18.7107 53.7895 21.2954 53.1364 23.7327C52.4834 26.17 51.0443 28.3237 49.0425 29.8598C47.0406 31.3958 44.5878 32.2284 42.0646 32.2284C39.5413 32.2284 37.0885 31.3958 35.0867 29.8598C33.0848 28.3237 31.6458 26.17 30.9927 23.7327L22.7462 25.9423Z" fill="black"/>
</svg>
