<?xml version="1.0" standalone="no"?>
<!DOCTYPE svg PUBLIC "-//W3C//DTD SVG 20010904//EN"
 "http://www.w3.org/TR/2001/REC-SVG-20010904/DTD/svg10.dtd">
<svg version="1.0" xmlns="http://www.w3.org/2000/svg"
 width="1476.000000pt" height="626.000000pt" viewBox="0 0 1476.000000 626.000000"
 preserveAspectRatio="xMidYMid meet">

<g transform="translate(0.000000,626.000000) scale(0.100000,-0.100000)"
fill="#000000" stroke="none">
<path d="M2778 5054 c-19 -6 -38 32 204 -389 213 -371 444 -774 568 -992 57
-101 107 -183 111 -183 9 0 32 33 192 267 60 87 157 230 217 317 l109 159 -19
37 c-11 21 -73 130 -138 241 -65 112 -142 247 -172 299 -69 121 -136 189 -215
220 -58 22 -72 23 -450 26 -214 1 -397 0 -407 -2z"/>
<path d="M2413 4448 c-11 -13 -76 -120 -143 -238 -68 -118 -174 -305 -237
-415 -63 -110 -198 -344 -299 -521 -110 -191 -184 -331 -184 -347 0 -18 7 -28
22 -32 11 -4 410 -4 884 0 712 6 866 10 875 21 12 14 -39 113 -186 364 -61
102 -300 522 -516 905 -173 306 -175 308 -216 263z"/>
<path d="M4314 3528 c-76 -112 -174 -255 -217 -318 -43 -63 -95 -139 -115
-169 l-36 -53 30 -57 c16 -31 86 -153 156 -271 69 -118 223 -386 343 -595 195
-341 289 -505 312 -543 8 -12 70 88 199 318 23 41 68 122 101 180 101 182 108
201 108 315 0 127 -10 151 -182 447 -167 284 -324 557 -448 776 -53 94 -101
172 -105 172 -4 0 -70 -91 -146 -202z"/>
<path d="M6154 3070 c0 -173 2 -244 3 -157 2 86 2 228 0 315 -1 86 -3 15 -3
-158z"/>
<path d="M6420 2445 l0 -125 3980 0 3980 0 0 125 0 125 -3980 0 -3980 0 0
-125z"/>
<path d="M1210 2319 c5 -17 51 -104 101 -193 259 -453 302 -512 418 -569 l66
-32 1174 -3 1173 -2 -6 27 c-4 16 -54 109 -111 208 -316 549 -323 561 -365
582 -20 10 -289 13 -1242 13 l-1217 0 9 -31z"/>
<path d="M3093 33 c32 -2 81 -2 110 0 29 2 3 3 -58 3 -60 0 -84 -1 -52 -3z"/>
</g>
</svg>
